<svg width="551" height="646" viewBox="0 0 551 646" fill="none" xmlns="http://www.w3.org/2000/svg">
<path d="M510.67 462.01C555.319 348.472 507.549 200.306 390.986 99.4835C329.363 46.182 249.96 7.68509 155.103 24.4203C-14.4637 54.3362 18.9789 199.658 55.122 285.472C72.5989 326.967 84.2154 369.173 89.8948 410.926C100.112 486.044 142.071 603.606 304.25 608.029C421.798 611.235 480.928 537.638 510.67 462.01Z" fill="#F2F2F2"/>
<path d="M338.875 43.1056C338.426 39.5577 337.52 36.083 336.178 32.7688C336.007 32.1421 335.708 31.5579 335.299 31.0535C334.89 30.5491 334.38 30.1355 333.803 29.8391C333.031 29.6381 332.222 29.6291 331.446 29.8127L319.345 31.6669C318.332 31.7132 317.362 32.0906 316.584 32.7412C315.008 34.401 316.56 37.0738 316.512 39.3638C316.457 41.9388 314.173 44.0289 311.695 44.7204C309.166 45.2321 306.557 45.1997 304.042 44.6254L287.121 41.9922C292.105 40.399 296.54 37.4348 299.922 33.438C302.149 30.7964 303.333 25.8646 300.115 24.6137C299.159 24.3509 298.162 24.2708 297.176 24.3774C289.51 24.4371 283.477 18.0272 276.3 15.3276C271.707 13.7114 266.721 13.5912 262.055 14.9841C257.389 16.3769 253.283 19.2115 250.323 23.0826L259.337 23.5178C260.185 23.4709 261.026 23.6955 261.738 24.159C263.713 25.7843 261.257 28.9062 261.535 31.4513C261.897 34.7579 266.281 35.4639 269.586 35.7983C272.891 36.1326 277.084 38.8216 275.494 41.7423C258.883 47.4718 241.98 30.5422 224.535 32.6262C220.12 33.1537 215.951 34.8906 211.64 35.9828C185.307 42.6547 158.084 24.8533 131.184 28.6233C125.203 29.6443 119.326 31.1966 113.621 33.2619C109.959 34.4657 106.141 35.7666 103.48 38.5585C100.82 41.3504 99.8077 46.1249 102.328 49.0442C95.3818 49.617 88.3893 48.9514 81.6753 47.0783C83.4909 48.089 85.0013 49.5704 86.048 51.3672C87.0947 53.164 87.639 55.2098 87.6239 57.2899C76.7784 59.0609 66.2201 62.2848 56.233 66.8749C58.0969 69.9789 60.2741 72.8832 62.7301 75.5421L49 84.3754C53.6387 85.5458 56.037 91.88 53.3394 95.836C58.1492 93.6932 61.1301 88.1501 66.2734 87.0263C69.6429 86.29 73.0715 87.6704 76.268 88.9671C79.4645 90.2638 82.9778 91.5211 86.2869 90.5479C89.596 89.5747 92.0367 85.278 89.934 82.5404C104.078 78.4079 118.695 76.1209 133.424 75.7362C134.56 75.5934 135.712 75.8124 136.717 76.3622C138.635 77.6942 138.13 80.5714 138.027 82.9059C137.924 85.2404 139.741 88.3086 141.824 87.2563C139.373 89.385 141.469 93.3923 143.82 95.6307C146.172 97.8691 149.007 100.958 147.567 103.869C147.191 104.629 146.554 105.237 146.192 106.004C145.125 108.268 146.819 110.907 148.818 112.41C150.817 113.913 153.265 114.963 154.653 117.045C156.042 119.126 155.411 122.77 152.929 123.06L145.872 114.088C143.461 116.592 141.808 119.728 141.105 123.134C148.588 129.26 149.714 141.728 143.449 149.099C140.248 152.865 135.695 155.154 131.721 158.092C127.748 161.029 124.071 165.213 124.081 170.159C124.098 178.704 123.401 186.643 126.599 194.565C132.495 209.173 139.303 223.396 146.981 237.149C148.997 240.76 151.603 244.718 155.688 245.34C150.526 232.755 145.879 219.974 141.747 206.997C144.438 207.008 147.548 207.222 149.126 209.405C150.432 211.213 150.151 213.671 150.557 215.866C151.074 217.992 151.935 220.018 153.106 221.865L177.758 265.839C179.801 269.485 182.145 273.398 186.051 274.874C188.548 275.818 191.437 275.64 193.736 276.999C195.537 278.064 196.75 279.955 198.587 280.958C203.78 283.795 211.001 278.354 215.854 281.741C217.242 282.71 218.125 284.248 219.403 285.357C223.886 289.244 231.238 286.644 236.412 289.544C239.747 291.412 241.475 295.15 243.254 298.537C247.709 307.02 254.918 315.332 264.466 316.008C267.466 316.22 270.529 315.65 273.461 316.318C276.393 316.986 279.279 319.549 278.808 322.522C278.002 327.621 280.517 333.203 279.841 338.321C278.611 347.643 265.407 351.739 264.273 361.073C264.025 363.117 264.414 365.226 263.928 367.226C263.332 369.678 261.493 371.674 260.84 374.111C259.602 378.729 262.906 383.325 266.536 386.432C270.165 389.539 274.495 392.218 276.479 396.567C278.576 401.164 277.546 406.524 278.228 411.532C279.717 422.465 289.147 430.569 298.851 435.795C301.807 437.387 304.982 438.928 306.896 441.69C309.393 445.296 309.145 450.048 309.979 454.356C312.021 464.905 320.89 473.597 321.141 484.34C321.32 491.976 317.082 498.903 314.55 506.108C312.176 513.011 311.317 520.345 312.032 527.611C312.746 534.876 315.017 541.902 318.689 548.209C320.583 551.411 322.849 554.431 324.189 557.903C326.58 564.099 325.804 571.142 328.008 577.407C330.923 585.689 338.932 592.531 338.165 601.279C341.801 608.84 349.83 612.555 357.903 614.806L372.373 618.839C375.143 619.611 378.038 620.39 380.86 619.831C383.681 619.271 386.373 616.926 386.3 614.047C379.205 612.444 371.881 610.74 366.032 606.41C360.183 602.08 356.176 594.37 358.396 587.433C359.425 584.216 361.614 580.502 359.533 577.844C358.341 576.323 356.162 575.925 354.817 574.537C352.721 572.371 353.441 568.733 354.948 566.122C356.456 563.51 358.634 561.176 359.242 558.222C359.549 556.57 359.344 554.862 358.655 553.33C357.965 551.797 356.824 550.512 355.385 549.647C358.067 548.633 360.508 547.065 362.546 545.046C364.43 542.892 365.3 539.571 363.818 537.123C368.218 537.681 373.412 537.955 376.3 534.585C378.606 531.893 378.448 527.87 377.537 524.443C376.626 521.016 375.085 517.687 375.037 514.141C385.187 514.623 395.358 514.277 405.451 513.108C403.992 508.186 400.675 504.026 396.204 501.511C400.776 500.737 404.94 495.256 406.385 490.844C407.829 486.433 407.46 481.627 406.568 477.071C406.225 475.898 406.178 474.658 406.431 473.463C406.946 471.82 408.557 470.817 410.048 469.96L432.739 456.91C434.093 456.231 435.32 455.324 436.367 454.228C438.744 451.432 438.392 447.211 437.175 443.746C435.958 440.282 434.008 437.025 433.539 433.382C432.137 422.489 443.781 414.674 447.711 404.42C449.253 400.396 449.567 396.022 449.866 391.722C450.186 387.103 450.21 381.739 446.669 378.763C443.275 375.91 437.971 376.547 434.419 373.893C431.163 371.46 430.039 366.735 426.482 364.77C423.251 362.986 419.201 364.121 415.608 363.281C409.281 361.804 405.3 354.502 398.839 353.826C395.194 353.444 391.068 355.229 388.08 353.103C385.447 351.23 385.342 347.464 384.841 344.269C383.962 339.304 381.586 334.727 378.031 331.155C374.475 327.584 369.913 325.189 364.957 324.294C361.198 323.69 357.107 323.919 353.91 321.851C350.672 319.756 349.187 315.835 346.644 312.934C342.545 308.26 336.089 306.599 330.042 305.175L305.443 299.384C301.076 298.356 295.447 297.811 293.104 301.641C292.41 303.1 291.919 304.646 291.644 306.238C290.766 309.118 288.999 311.645 286.597 313.455C284.195 315.266 281.281 316.267 278.275 316.315C276.214 312.794 272.874 310.206 268.952 309.091C266.458 308.395 263.788 308.318 261.409 307.294C260.113 306.66 258.96 305.769 258.021 304.674C257.081 303.579 256.374 302.304 255.944 300.926C255.514 299.548 255.368 298.096 255.518 296.66C255.667 295.224 256.107 293.834 256.811 292.574C258.229 290.046 258.777 287.12 258.37 284.249C257.963 281.377 256.623 278.72 254.557 276.687C250.374 272.926 244.323 272.017 238.713 272.393C237.244 269.183 239.701 265.562 242.348 263.229C244.995 260.896 248.209 258.603 248.786 255.119C249.692 249.639 242.71 245.477 237.409 247.111C232.108 248.745 228.724 253.901 226.488 258.984C225.204 261.901 224.113 264.972 222.089 267.431C220.065 269.89 216.805 271.65 213.722 270.861C209.356 269.744 207.67 264.551 206.704 260.144C205.408 254.231 204.104 248.237 204.376 242.189C204.648 236.142 206.683 229.933 211.136 225.839C218.393 219.168 229.524 219.822 239.317 220.886C237.004 218.276 237.575 213.876 240.051 211.419C241.358 210.256 242.928 209.43 244.625 209.013C246.323 208.595 248.097 208.598 249.793 209.022C252.744 209.637 255.402 211.229 257.34 213.541C260.123 216.939 260.914 221.526 263.018 225.383C265.121 229.239 269.851 232.529 273.722 230.46C277.066 228.673 277.597 224.029 276.765 220.327C275.932 216.624 274.165 213.023 274.466 209.239C275.041 202.02 282.515 197.674 289.109 194.701C295.704 191.728 303.255 187.729 304.3 180.563C304.336 179.159 304.6 177.772 305.083 176.454C305.814 175.29 306.83 174.332 308.035 173.673C327.282 160.936 346.849 148.043 368.847 141.083C369.992 140.721 370.126 141.123 371.292 140.839C372.925 139.895 371.843 137.281 370.278 136.228C368.713 135.175 366.621 134.368 366.224 132.522C365.932 131.165 366.73 129.833 366.938 128.461C367.447 125.089 363.419 121.975 360.291 123.324C358.524 120.98 362.02 118.257 364.847 117.478C373.337 115.138 382.052 113.712 390.844 113.225C391.858 113.063 392.898 113.24 393.802 113.729C395.278 114.753 395.09 117.102 394.043 118.564C392.997 120.027 391.369 120.945 390.065 122.182C388.64 123.572 387.624 125.327 387.127 127.256C386.63 129.185 386.672 131.213 387.248 133.12C391.838 135.458 396.827 137.864 401.911 137.041C406.994 136.217 411.506 130.497 409.117 125.929C406.892 121.676 400.208 120.716 399.059 116.054C397.713 110.595 405.429 105.741 403.691 100.395C402.93 98.0527 400.599 96.6745 398.811 94.9838C396.699 92.9108 395.262 90.2467 394.69 87.3413C394.117 84.4359 394.435 81.425 395.602 78.704C392.69 79.2172 389.696 79.0234 386.874 78.1388C384.051 77.2543 381.482 75.7048 379.38 73.6204C375.5 69.699 372.405 63.5131 366.895 63.6885C361.838 63.8495 357.483 69.7568 352.756 67.9546C351.592 67.5112 350.366 66.6088 349.239 67.1375C348.87 67.3777 348.56 67.6987 348.332 68.0765C348.105 68.4542 347.967 68.8787 347.927 69.3179C346.726 75.0703 348.793 81.6244 345.662 86.5951C342.255 92.0043 334.375 92.7542 330.245 97.6319C328.003 100.28 327.134 103.848 325.073 106.639C323.013 109.431 318.639 111.205 316.166 108.773C317.381 106.271 317.713 103.429 317.107 100.714C316.501 97.9981 314.993 95.5686 312.83 93.8223C310.534 92.3221 308.059 91.1165 305.463 90.2338C302.562 89.0042 299.803 87.464 297.233 85.6403C295.945 84.8626 294.899 83.7417 294.211 82.4028C293.667 80.7264 293.74 78.9102 294.418 77.2832C295.672 73.6827 297.884 70.4936 300.816 68.0602C303.748 65.6268 307.287 64.0416 311.053 63.4756C314.346 63.027 318.178 63.1851 320.358 60.6726C321.511 59.3432 322.116 57.3333 323.789 56.7934C324.86 56.578 325.971 56.7151 326.958 57.1841L339.248 61.5163C340.619 62.1362 342.129 62.3862 343.626 62.2415C344.369 62.1413 345.046 61.7636 345.522 61.1842C345.998 60.6048 346.238 59.8665 346.193 59.1175C345.801 57.0735 342.66 56.0927 342.946 54.0311C343.106 53.363 343.464 52.7592 343.974 52.2996C348.41 47.5719 353.834 43.8849 359.859 41.5023C365.884 39.1197 372.361 38.1005 378.825 38.5178C380.376 41.0691 377.923 44.0904 375.882 46.2684C373.84 48.4464 372.2 52.338 374.668 54.0146C375.68 54.5316 376.806 54.7855 377.941 54.7526C380.967 55.1628 383.908 56.056 386.651 57.3983C390.898 59.2492 395.064 61.2743 399.148 63.4736C398.787 60.777 398.443 57.9362 399.464 55.4147C400.484 52.8933 403.385 50.9157 405.919 51.8976C408.361 52.8439 409.613 56.0818 412.214 56.3784C415.685 56.7741 417.054 51.6402 415.604 48.458C414.155 45.2758 411.285 42.6112 411.046 39.1218C410.884 36.7678 411.779 33.8482 409.901 32.4227C409.233 31.9947 408.474 31.7284 407.685 31.6448L360.799 23.0047C358.015 22.4916 353.992 22.8849 353.869 25.7171C353.8 27.298 355.21 28.8621 354.586 30.3156C353.919 31.867 351.729 31.7251 350.134 32.2739C347.659 33.1252 346.417 36.0682 346.655 38.6779C347.09 41.271 348.093 43.7356 349.592 45.8948C346.542 44.6176 341.924 44.3828 338.875 43.1056Z" fill="#3F3D56"/>
<path d="M299.886 291.261C312.728 291.261 323.138 281.133 323.138 268.641C323.138 256.148 312.728 246.021 299.886 246.021C287.045 246.021 276.634 256.148 276.634 268.641C276.634 281.133 287.045 291.261 299.886 291.261Z" fill="#27AE60"/>
<path d="M300.056 327.617C299.357 329.312 296.937 329.256 296.323 327.53L278.731 278.127C278.26 276.806 279.262 275.422 280.664 275.454L318.266 276.333C319.669 276.366 320.601 277.795 320.066 279.093L300.056 327.617Z" fill="#27AE60"/>
<circle cx="299.5" cy="268.5" r="8.5" fill="#FFFBFB"/>
</svg>
