<svg width="641" height="446" viewBox="0 0 641 446" fill="none" xmlns="http://www.w3.org/2000/svg">
<path d="M535.579 68.5792L486.131 69.0608C483.807 57.6231 475.998 27.6124 483.03 19.4267C483.351 16.3458 484.848 13.5072 487.209 11.5018C489.571 9.49639 492.615 8.47871 495.709 8.66061V8.66061C503.373 -3.33158 516.139 -1.53103 524.767 5.95861C533.45 8.95363 536.724 14.2744 535.579 21.495C542.01 27.1218 543.196 33.9674 540.309 41.7599L535.579 68.5792Z" fill="#2F2E41"/>
<path d="M530.819 99.0284L495.143 94.0907L488.008 83.6667C497.837 77.1496 501.315 68.0471 496.79 55.6863L521.488 55.1377C520.331 66.1451 523.973 74.6679 534.112 79.8262L530.819 99.0284Z" fill="#FFB9B9"/>
<path d="M486.709 420.683L485.345 439.325C485.283 440.168 485.402 441.016 485.695 441.809C485.988 442.603 486.447 443.325 487.041 443.927C487.636 444.529 488.353 444.997 489.143 445.3C489.934 445.602 490.78 445.732 491.625 445.681L501.204 445.101C501.647 445.074 502.08 444.95 502.47 444.737C502.861 444.524 503.199 444.228 503.462 443.869C503.725 443.511 503.906 443.099 503.991 442.663C504.077 442.227 504.065 441.777 503.958 441.346L498.641 420.087L486.709 420.683Z" fill="#E6E6E6"/>
<path d="M517.72 420.087L512.403 441.346C512.295 441.777 512.283 442.227 512.369 442.663C512.455 443.099 512.635 443.511 512.898 443.869C513.161 444.228 513.5 444.524 513.89 444.737C514.281 444.95 514.713 445.074 515.157 445.101L524.736 445.681C525.581 445.732 526.427 445.602 527.217 445.3C528.007 444.997 528.724 444.529 529.319 443.927C529.914 443.325 530.373 442.603 530.665 441.809C530.958 441.016 531.077 440.168 531.016 439.324L529.651 420.683L517.72 420.087Z" fill="#E6E6E6"/>
<path d="M530.27 423.271L517.343 421.974L504.474 284.467L499.61 421.531L486.91 421.077L465.505 231.249H547.284L530.27 423.271Z" fill="#27AE60"/>
<path d="M510.511 64.4644C524.152 64.4644 535.21 53.411 535.21 39.7759C535.21 26.1408 524.152 15.0874 510.511 15.0874C496.871 15.0874 485.813 26.1408 485.813 39.7759C485.813 53.411 496.871 64.4644 510.511 64.4644Z" fill="#FFB9B9"/>
<path d="M559.359 235.638L459.468 236.735C474.292 180.323 483.16 127.921 467.701 91.8962L492.399 79.8262C504.308 92.2427 517.571 90.9626 531.917 78.7289L555.517 84.7639C551.475 132.005 553.287 182.601 559.359 235.638Z" fill="#27AE60"/>
<path d="M432.025 177.483L494.046 202.171L507.912 206.248C508.532 206.43 509.183 206.486 509.825 206.41C510.467 206.335 511.087 206.131 511.648 205.809C512.209 205.488 512.7 205.057 513.09 204.542C513.48 204.027 513.762 203.438 513.919 202.811C514.194 201.712 514.07 200.551 513.571 199.534C513.071 198.517 512.227 197.71 511.188 197.255L496.79 192.845L453.431 167.608L462.487 143.742L443.551 133.592L432.025 177.483Z" fill="#FFB9B9"/>
<path d="M432.574 132.495C444.374 137.097 453.76 144.95 461.115 155.538L484.166 122.071L467.701 91.8961L432.574 132.495Z" fill="#27AE60"/>
<path d="M538.348 35.7747C528.323 33.1929 518.468 32.8384 508.887 36.1132C502.784 39.0679 495.455 38.7956 487.304 36.3612V11.7294L531.307 12.9024L538.348 35.7747Z" fill="#2F2E41"/>
<path d="M493.84 148.718C491.9 148.72 490.041 149.491 488.67 150.862C487.298 152.233 486.527 154.091 486.525 156.03L489.412 216.448C489.414 218.386 490.186 220.245 491.557 221.616C492.928 222.987 494.788 223.758 496.727 223.76H529.739C531.678 223.758 533.538 222.987 534.909 221.616C536.28 220.245 537.052 218.386 537.054 216.448L539.941 156.03C539.939 154.091 539.168 152.233 537.796 150.862C536.425 149.491 534.566 148.72 532.626 148.718H493.84Z" fill="#3F3D56"/>
<path d="M587.504 172.919L533.445 194.436L529.366 196.059C529.236 196.11 529.106 196.153 528.969 196.196L515.305 200.215C513.558 200.728 511.14 198.375 509.725 196.752C509.024 195.969 508.628 194.962 508.606 193.912C508.585 192.862 508.941 191.84 509.609 191.03C509.798 190.812 510.006 190.612 510.23 190.431C510.757 190.021 511.377 189.749 512.035 189.637L525.685 186.953C526.175 186.857 526.645 186.682 527.078 186.434L533.445 182.725L566.498 163.488C567.417 162.954 568.117 162.111 568.473 161.109C568.828 160.108 568.817 159.012 568.44 158.019L562.131 141.387C561.744 140.369 561.741 139.245 562.122 138.226C562.503 137.206 563.243 136.36 564.203 135.845L574.655 130.246C575.252 129.925 575.915 129.744 576.592 129.717C577.269 129.689 577.944 129.816 578.565 130.087C579.187 130.358 579.738 130.766 580.179 131.281C580.619 131.796 580.937 132.404 581.108 133.06L590.182 167.608C590.461 168.667 590.343 169.792 589.849 170.771C589.356 171.749 588.522 172.513 587.504 172.919V172.919Z" fill="#FFB9B9"/>
<path d="M590.644 126.46C578.844 131.062 569.458 138.915 562.103 149.503L539.052 116.036L555.517 84.7639L590.644 126.46Z" fill="#27AE60"/>
<path d="M526.948 61.75C516.143 66.2425 504.814 66.0601 493.021 61.75C496.453 55.8953 491.324 51.3098 488.69 45.3996L532.723 44.0916C529.356 49.226 524.387 55.2921 526.948 61.75Z" fill="white"/>
<path d="M532.257 45.0686L531.746 44.5584L532.467 43.8369L536.78 38.8062L537.328 39.2752L532.997 44.3261L532.257 45.0686Z" fill="white"/>
<path d="M485.673 42.0105L485.211 42.5651L489.542 46.1729L490.004 45.6183L485.673 42.0105Z" fill="white"/>
<path d="M533.501 49.3106L525.92 61.2152L526.529 61.6028L534.11 49.6982L533.501 49.3106Z" fill="white"/>
<path d="M486.469 49.3097L485.859 49.6972L493.439 61.6029L494.048 61.2155L486.469 49.3097Z" fill="white"/>
<path d="M534.889 181.704V194.776L530.336 196.588C530.191 196.645 530.046 196.693 529.893 196.742L514.64 201.228C512.69 201.8 509.991 199.174 508.411 197.362C507.629 196.488 507.187 195.364 507.163 194.192C507.139 193.02 507.536 191.879 508.282 190.975C508.493 190.732 508.725 190.508 508.975 190.306C509.563 189.849 510.255 189.544 510.99 189.42L526.227 186.424C526.773 186.317 527.299 186.121 527.782 185.844L534.889 181.704Z" fill="white"/>
<path d="M541.486 135.077H538.878C538.878 98.1979 531.281 72.4973 523.878 72.4973L523.226 69.8898C529.865 69.8898 534.098 80.5862 536.479 89.5596C539.708 101.725 541.486 117.89 541.486 135.077Z" fill="#3F3D56"/>
<path d="M481.49 125.951H478.881C478.881 92.1755 486.53 71.1936 497.793 71.1936L497.141 73.8011C489.35 73.8011 481.49 89.9264 481.49 125.951Z" fill="#3F3D56"/>
<path d="M540.182 142.248C543.783 142.248 546.703 139.329 546.703 135.729C546.703 132.129 543.783 129.21 540.182 129.21C536.58 129.21 533.66 132.129 533.66 135.729C533.66 139.329 536.58 142.248 540.182 142.248Z" fill="#3F3D56"/>
<path d="M471.056 141.596H468.447C468.447 132.25 473.713 124.647 480.185 124.647V127.255C475.151 127.255 471.056 133.688 471.056 141.596Z" fill="#3F3D56"/>
<path d="M491.924 141.596H489.315C489.315 133.688 485.22 127.255 480.185 127.255V124.647C486.658 124.647 491.924 132.25 491.924 141.596Z" fill="#3F3D56"/>
<path d="M490.62 144.855C492.06 144.855 493.228 143.688 493.228 142.248C493.228 140.808 492.06 139.64 490.62 139.64C489.179 139.64 488.011 140.808 488.011 142.248C488.011 143.688 489.179 144.855 490.62 144.855Z" fill="#3F3D56"/>
<path d="M469.751 144.855C471.192 144.855 472.36 143.688 472.36 142.248C472.36 140.808 471.192 139.64 469.751 139.64C468.31 139.64 467.143 140.808 467.143 142.248C467.143 143.688 468.31 144.855 469.751 144.855Z" fill="#3F3D56"/>
<path d="M155.392 54.6202L109.58 62.3752C108.448 62.5682 107.285 62.3347 106.315 61.7199C105.346 61.1051 104.639 60.1526 104.332 59.0469C101.022 47.1055 94.1017 31.5275 100.82 23.7074C101.163 20.4175 102.761 17.3863 105.283 15.2449C107.805 13.1034 111.056 12.0167 114.359 12.2109C122.543 -0.594833 136.175 1.32787 145.388 9.32563C154.661 12.5238 158.156 18.2056 156.934 25.9161C160.94 29.421 163.04 33.3688 163.483 37.7019C163.693 40.1132 163.386 42.5416 162.582 44.8249C161.779 47.1082 160.498 49.194 158.824 50.9431L155.392 54.6202Z" fill="#2F2E41"/>
<path d="M148.27 90.6729L112.755 88.5846C116.235 80.5992 117.625 72.9096 116.236 65.6133H142.699C142.639 71.2154 145.428 80.906 148.27 90.6729Z" fill="#9F616A"/>
<path d="M105.519 418.713L104.063 438.619C103.997 439.52 104.124 440.425 104.437 441.272C104.749 442.12 105.239 442.891 105.875 443.534C106.51 444.177 107.275 444.676 108.119 444.999C108.963 445.322 109.866 445.461 110.769 445.407L120.997 444.787C121.471 444.758 121.933 444.626 122.35 444.398C122.767 444.171 123.128 443.855 123.409 443.472C123.69 443.089 123.883 442.649 123.974 442.184C124.066 441.718 124.053 441.238 123.938 440.777L118.26 418.076L105.519 418.713Z" fill="#E6E6E6"/>
<path d="M138.634 418.076L132.956 440.777C132.841 441.238 132.829 441.718 132.92 442.184C133.012 442.649 133.205 443.089 133.486 443.472C133.766 443.855 134.128 444.171 134.545 444.398C134.962 444.626 135.423 444.758 135.897 444.787L146.126 445.407C147.028 445.461 147.932 445.322 148.776 444.999C149.62 444.676 150.385 444.177 151.02 443.534C151.655 442.891 152.145 442.12 152.458 441.272C152.77 440.425 152.898 439.52 152.832 438.619L151.375 418.713L138.634 418.076Z" fill="#E6E6E6"/>
<path d="M152.035 421.476L138.232 420.092L124.49 273.255L119.296 419.618L105.735 419.133L82.8774 216.427H170.204L152.035 421.476Z" fill="#27AE60"/>
<path d="M130.166 74.0636C144.732 74.0636 156.54 62.2603 156.54 47.7002C156.54 33.1401 144.732 21.3368 130.166 21.3368C115.6 21.3368 103.792 33.1401 103.792 47.7002C103.792 62.2603 115.6 74.0636 130.166 74.0636Z" fill="#9F616A"/>
<path d="M159.89 35.106C149.186 33.2425 138.662 32.9867 128.431 35.3503C121.914 37.4829 114.088 37.2864 105.384 35.5293V17.7509L152.372 18.5975L159.89 35.106Z" fill="#2F2E41"/>
<path d="M147.718 68.8535C136.18 73.6508 124.082 73.456 111.489 68.8535C115.153 62.6015 109.676 57.7051 106.864 51.3939L153.884 49.9971C150.289 55.4798 144.983 61.9574 147.718 68.8535Z" fill="white"/>
<path d="M103.627 47.7936L103.165 48.3482L107.789 52.2005L108.252 51.6459L103.627 47.7936Z" fill="white"/>
<path d="M154.736 55.5827L146.641 68.295L147.25 68.6826L155.345 55.9703L154.736 55.5827Z" fill="white"/>
<path d="M104.47 55.5821L103.861 55.9696L111.954 68.6832L112.564 68.2957L104.47 55.5821Z" fill="white"/>
<path d="M80.0249 167.94L59.83 155.41L77.0527 104.988C78.9735 99.7855 82.6528 95.417 87.4543 92.6383L93.256 89.2808L93.7605 140.147L80.0249 167.94Z" fill="#27AE60"/>
<path d="M167.316 192.428L164.328 166.847C164.169 153.345 166.467 140.291 171.946 128.262L174.732 90.6729L144.091 78.1431C143.997 78.7673 143.918 79.391 143.828 80.0151L129.468 87.1924L115.462 84.0107L115.54 79.5354L87.685 92.0651C96.8966 134.874 91.8724 179.329 76.0316 231.838L112.728 241.868L113.033 224.254L145.738 221.919C146.075 227.634 146.345 233.247 146.502 238.735C164.957 245.527 165.59 245.414 182.404 235.69C175.709 221.618 170.407 206.974 167.316 192.428Z" fill="#27AE60"/>
<path d="M214.425 161.675L195.623 155.41L165.548 120.412L174.732 90.6733L216.514 149.146L214.425 161.675Z" fill="#27AE60"/>
<path d="M155.5 188.769C155.807 190.119 156.638 191.291 157.809 192.03C158.98 192.768 160.396 193.012 161.747 192.708L177.708 189.095L175.401 178.912L159.44 182.524C158.089 182.83 156.915 183.66 156.176 184.831C155.437 186.002 155.194 187.419 155.5 188.769V188.769Z" fill="#E6E6E6"/>
<path d="M169.857 176.989L178.91 193.696C194.137 189.45 207.334 176.067 219.997 160.283L216.515 149.145L194.927 154.714L169.857 176.989Z" fill="#27AE60"/>
<path d="M51.8214 124.585L69.2006 127.687L108.925 184.147L87.8214 179.183L51.8214 124.585Z" fill="#E6E6E6"/>
<path d="M48.7389 123.894C48.4741 123.898 48.2152 123.973 47.9893 124.111C47.7634 124.249 47.5788 124.446 47.4549 124.68C47.3309 124.914 47.2721 125.177 47.2846 125.441C47.2971 125.706 47.3805 125.962 47.526 126.183L84.6573 182.498C84.8645 182.813 85.1846 183.036 85.5516 183.122L102.828 187.186C103.119 187.254 103.424 187.232 103.703 187.124C103.982 187.015 104.221 186.824 104.388 186.576C104.556 186.328 104.644 186.035 104.641 185.736C104.639 185.437 104.545 185.146 104.373 184.901L63.6049 126.957C63.4943 126.799 63.3537 126.665 63.1911 126.561C63.0285 126.458 62.8471 126.387 62.6572 126.354L49.0174 123.919C48.9255 123.903 48.8323 123.894 48.7389 123.894Z" fill="#3F3D56"/>
<path d="M71.9016 164.159L72.9336 174.549L89.2182 172.933C90.5966 172.796 91.8642 172.118 92.7422 171.047C93.6201 169.976 94.0365 168.6 93.8997 167.222C93.7629 165.845 93.0841 164.577 92.0127 163.7C90.9413 162.822 89.565 162.406 88.1865 162.543L71.9016 164.159Z" fill="#E6E6E6"/>
<path d="M57.7412 162.955C57.7649 166.498 59.1884 169.888 61.7016 172.386C64.2148 174.885 67.6139 176.289 71.1583 176.293H73.8361L75.7854 160.054L59.6447 154.246L57.7412 162.955Z" fill="#27AE60"/>
<path d="M152.598 51.7935L152.087 51.2834L152.858 50.5127L157.464 45.1393L158.012 45.6083L153.387 51.0019L152.598 51.7935Z" fill="white"/>
<path d="M641 444.557H0V446H641V444.557Z" fill="#3F3D56"/>
</svg>
