<svg width="90" height="209" viewBox="0 0 90 209" fill="none" xmlns="http://www.w3.org/2000/svg">
<g filter="url(#filter0_i_2_8)">
<path d="M41.4814 19.7648C45.2057 18.1433 49.7781 17.6113 53.5675 19.1178C57.357 20.6244 59.9405 24.4869 58.7151 27.9049C58.1596 29.4542 56.8942 30.9791 57.3872 32.5436C57.7667 33.7481 59.0903 34.5435 60.3902 35.1091C61.6901 35.6747 63.1117 36.1498 64.0521 37.104C64.9925 38.0581 65.1887 39.7 64.014 40.4396C63.6271 40.6837 63.1433 40.7986 62.7685 41.056C62.4481 41.2991 62.2182 41.6287 62.1083 42.0011C61.9988 42.3724 62.0159 42.767 62.1571 43.1292C62.4699 43.8575 62.9864 44.4943 63.6533 44.9714C64.986 46.0477 66.748 47.2786 66.3339 48.8065C66.1814 49.2144 65.9242 49.5827 65.5864 49.8777C65.2486 50.1737 64.84 50.3883 64.3943 50.5053C63.4691 50.7545 62.5091 50.8736 61.5466 50.8563L22.2076 52.0169C20.909 52.1075 19.6032 52.0393 18.3236 51.8135C17.7015 51.7077 17.1096 51.4819 16.5848 51.1523C16.0599 50.8217 15.6134 50.3944 15.2732 49.896C14.5198 48.5908 15.0144 46.9825 15.9448 45.7639C16.8751 44.5452 18.1918 43.5839 19.2797 42.4649C20.3677 41.3459 21.2578 39.9492 21.066 38.5027C20.9125 37.345 20.0966 36.3441 19.511 35.2922C18.9253 34.2404 18.5852 32.9261 19.3437 31.9587C20.4125 30.5945 22.9787 30.7176 24.194 29.4471C25.1111 28.4878 24.934 27.1074 25.0252 25.8714C25.2446 22.8959 27.4449 20.0873 30.5772 18.7822C32.17 18.1423 33.9025 17.8666 35.6318 17.9765C37.3612 18.0874 39.0377 18.5807 40.523 19.4169L41.4814 19.7648Z" fill="#2F2E41"/>
<path d="M65.2911 202.543L71.4522 200.81L67.2438 177.743L58.1508 180.3L65.2911 202.543Z" fill="#A0616A"/>
<path d="M65.5145 208.575L85.3807 202.988L85.3055 202.753C85.0004 201.803 84.498 200.918 83.8279 200.149C83.1566 199.38 82.3317 198.742 81.3978 198.272C80.464 197.802 79.4408 197.509 78.3848 197.408C77.33 197.309 76.2643 197.404 75.2498 197.69H75.2487L63.115 201.102L65.5145 208.575Z" fill="#2F2E41"/>
<path d="M7.14953 202.738H13.5831L16.6435 179.513H7.14844L7.14953 202.738Z" fill="#A0616A"/>
<path d="M5.50923 208.575L26.253 208.574V208.329C26.253 207.336 26.0443 206.353 25.6385 205.437C25.2328 204.52 24.638 203.687 23.8882 202.985C23.1385 202.283 22.2484 201.727 21.2688 201.347C20.2892 200.967 19.2392 200.771 18.179 200.771H18.1784L5.50879 200.772L5.50923 208.575Z" fill="#2F2E41"/>
<path d="M15.0187 188.03C15.5801 188.03 16.123 187.843 16.55 187.502C16.9771 187.161 17.2605 186.689 17.3493 186.17L26.9017 130.4C26.965 130.029 27.1553 129.69 27.4438 129.431C27.7322 129.172 28.103 129.008 28.5 128.964C28.897 128.921 29.2984 128.999 29.6434 129.188C29.9883 129.377 30.2579 129.666 30.4113 130.012L55.1596 185.773C55.39 186.288 55.8195 186.703 56.362 186.935C56.9047 187.166 57.5206 187.197 58.087 187.023L67.0259 184.234C67.5827 184.062 68.0502 183.702 68.3379 183.224C68.6266 182.746 68.7138 182.185 68.582 181.65L48.3011 97.6552C48.2019 97.2503 47.9835 96.88 47.6708 96.586C47.358 96.291 46.9634 96.0845 46.5317 95.9889L19.3323 90.0797C18.998 90.0084 18.6513 90.0054 18.3156 90.0715C17.98 90.1366 17.6632 90.2678 17.3868 90.4581C-0.523397 102.638 0.989643 142.431 4.32759 185.639C4.36922 186.18 4.6218 186.688 5.0373 187.066C5.4528 187.443 6.00223 187.665 6.58107 187.689L14.9151 188.028C14.9498 188.029 14.9843 188.03 15.0187 188.03Z" fill="#2F2E41"/>
<path d="M40.026 51.7311C32.9079 51.7311 27.1375 46.3305 27.1375 39.6685C27.1375 33.0065 32.9079 27.6048 40.026 27.6048C47.1442 27.6048 52.9146 33.0065 52.9146 39.6685C52.9146 46.3305 47.1442 51.7311 40.026 51.7311Z" fill="#A0616A"/>
<path d="M38.4202 98.2594C41.5139 98.2411 44.5648 97.5809 47.3535 96.3266L47.4494 96.2849L47.4874 96.1924L59.0475 68.1608L59.2673 63.2902C59.3411 61.6615 59.0494 60.036 58.4113 58.5192C57.7732 57.0025 56.8028 55.6272 55.5625 54.4828C54.3223 53.3373 52.8396 52.4493 51.21 51.8735C49.5805 51.2977 47.8401 51.0475 46.101 51.1391L33.8282 51.786C30.658 51.9549 27.6755 53.2478 25.4881 55.4024C23.3007 57.5569 22.0728 60.4103 22.0543 63.3817C21.7356 63.9555 19.4718 68.4365 23.9083 72.6469C24.074 73.6062 25.626 83.5733 19.7698 89.0553L19.6051 89.2089L19.7489 89.3798C19.8422 89.4917 27.3633 98.2584 38.4202 98.2594Z" fill="#3F3D56"/>
<path d="M21.1863 100.374C20.461 100.128 19.8023 99.7365 19.2563 99.2258C18.7105 98.7162 18.2907 98.0997 18.0267 97.4212C17.7627 96.7427 17.6608 96.0184 17.7283 95.2992C17.7957 94.58 18.0309 93.8832 18.417 93.2586L6.15942 79.9762L15.8225 78.7993L25.9811 91.5923C27.0599 92.2698 27.836 93.2931 28.1622 94.4701C28.4884 95.6461 28.3422 96.8943 27.7511 97.9766C27.1601 99.059 26.1654 99.9013 24.9554 100.343C23.7455 100.784 22.4043 100.795 21.1863 100.374Z" fill="#A0616A"/>
<path d="M13.5223 90.1224C13.9828 90.1224 14.4331 89.9962 14.8177 89.7592L20.8802 86.0381C21.3898 85.7258 21.751 85.2415 21.8878 84.6871C22.0247 84.1317 21.9266 83.5478 21.6143 83.0595L17.2254 76.1575C16.9879 75.7841 16.8375 75.3681 16.7841 74.9367C16.7307 74.5054 16.7754 74.068 16.9153 73.654C17.0554 73.239 17.2874 72.8575 17.5962 72.533C17.905 72.2084 18.2837 71.9491 18.7072 71.771L31.316 66.4803C32.8667 65.8211 34.1324 64.6889 34.9057 63.2688C35.6791 61.8497 35.9143 60.2252 35.5728 58.6637C35.3371 57.6108 34.845 56.6231 34.1349 55.7767C33.4246 54.9314 32.5155 54.2498 31.4781 53.7859C30.4407 53.3231 29.303 53.0891 28.1536 53.1044C27.0041 53.1196 25.8739 53.3831 24.8509 53.8734L5.72235 63.0471C4.43194 63.6666 3.29964 64.5383 2.40304 65.6054C1.50644 66.6715 0.866682 67.9075 0.52757 69.2269C0.188349 70.5463 0.157945 71.9185 0.438214 73.2501C0.718483 74.5817 1.30289 75.8411 2.15143 76.9407L11.6077 89.2048C11.8259 89.4886 12.1135 89.7205 12.4464 89.8802C12.7794 90.04 13.1482 90.1234 13.5223 90.1224Z" fill="#3F3D56"/>
<path d="M53.2114 37.9534C49.1411 37.6472 45.7618 33.8416 46.185 30.0401C46.2328 31.6067 45.6635 33.1356 44.5855 34.335C43.5075 35.5343 41.996 36.3217 40.3386 36.5455C38.4716 36.7388 36.4248 36.2098 34.7997 37.0917C32.9998 38.0673 32.4239 40.4385 30.5487 41.2818C28.737 42.0967 26.4358 40.9858 25.5407 39.3012C24.6456 37.6166 24.8653 35.5933 25.4584 33.7958C26.3045 31.2323 27.8449 28.9171 29.9299 27.0758C32.0149 25.2346 34.5735 23.9305 37.3569 23.2886C40.1403 22.6467 43.0537 22.6905 45.8138 23.4147C48.5739 24.14 51.0866 25.5204 53.1076 27.4227C54.8191 29.034 56.1779 31.0879 56.3984 33.3503C56.6187 35.6127 55.4973 38.0673 53.3263 39.0835L53.2114 37.9534Z" fill="#2F2E41"/>
<path d="M82.1465 0.609867C81.4676 0.952683 80.877 1.42978 80.4171 2.00962C79.9562 2.58844 79.6369 3.25577 79.4822 3.96277C79.3263 4.66976 79.3394 5.40015 79.5181 6.10308C79.6968 6.80499 80.0379 7.46213 80.5174 8.02773L70.4639 22.843L80.2068 22.6864L88.2607 8.64215C89.2218 7.82428 89.8299 6.7063 89.9694 5.49679C90.1088 4.28828 89.7689 3.07469 89.0159 2.08388C88.2618 1.09409 87.1471 0.397278 85.8808 0.125671C84.6146 -0.145937 83.2863 0.0259619 82.1465 0.609867Z" fill="#A0616A"/>
<path d="M74.0435 11.1588L61.0956 39.7936L47.5208 61.3371C46.9478 62.2465 46.6031 63.2658 46.5127 64.3176C46.4224 65.3705 46.5886 66.4284 46.999 67.4121C47.4094 68.3948 48.0532 69.2788 48.8818 69.9949C49.7104 70.7111 50.702 71.2421 51.7819 71.5473C53.4947 72.0233 55.3327 71.9104 56.9639 71.2278C58.5952 70.5463 59.9122 69.3408 60.677 67.8302L86.8398 15.5076C86.9826 15.2238 87.0578 14.9145 87.0621 14.6002C87.0665 14.2869 87 13.9756 86.866 13.6877C86.7319 13.4009 86.5336 13.1425 86.2852 12.9319C86.0367 12.7213 85.7425 12.5626 85.4232 12.467L76.94 9.91676C76.7798 9.86793 76.6141 9.83538 76.4452 9.82012C75.9451 9.77231 75.4405 9.87709 75.0079 10.1182C74.5753 10.3593 74.2375 10.7245 74.0435 11.1588Z" fill="#3F3D56"/>
<path d="M0.111586 209H84.498C84.5274 209 84.5558 208.952 84.5765 208.867C84.5972 208.781 84.6092 208.666 84.6092 208.545C84.6092 208.425 84.5972 208.309 84.5765 208.225C84.5558 208.139 84.5274 208.092 84.498 208.092H0.111586C0.0819468 208.092 0.0536115 208.139 0.0326894 208.225C0.0117673 208.309 0 208.425 0 208.545C0 208.666 0.0117673 208.781 0.0326894 208.867C0.0536115 208.952 0.0819468 209 0.111586 209Z" fill="#CCCCCC"/>
</g>
<defs>
<filter id="filter0_i_2_8" x="-4" y="0" width="94" height="213" filterUnits="userSpaceOnUse" color-interpolation-filters="sRGB">
<feFlood flood-opacity="0" result="BackgroundImageFix"/>
<feBlend mode="normal" in="SourceGraphic" in2="BackgroundImageFix" result="shape"/>
<feColorMatrix in="SourceAlpha" type="matrix" values="0 0 0 0 0 0 0 0 0 0 0 0 0 0 0 0 0 0 127 0" result="hardAlpha"/>
<feOffset dx="-4" dy="4"/>
<feGaussianBlur stdDeviation="10"/>
<feComposite in2="hardAlpha" operator="arithmetic" k2="-1" k3="1"/>
<feColorMatrix type="matrix" values="0 0 0 0 0 0 0 0 0 0 0 0 0 0 0 0 0 0 0.25 0"/>
<feBlend mode="normal" in2="shape" result="effect1_innerShadow_2_8"/>
</filter>
</defs>
</svg>
