<svg width="77" height="206" viewBox="0 0 77 206" fill="none" xmlns="http://www.w3.org/2000/svg">
<path opacity="0.1" d="M38.7028 35.272H29.0271V44.5966H38.7028V35.272Z" fill="#27AE60"/>
<path opacity="0.1" d="M38.7028 58.7874H29.0271V68.112H38.7028V58.7874Z" fill="#27AE60"/>
<path opacity="0.1" d="M38.7028 81.8961H29.0271V91.2208H38.7028V81.8961Z" fill="#27AE60"/>
<path opacity="0.1" d="M38.7028 105.006H29.0271V114.735H38.7028V105.006Z" fill="#27AE60"/>
<path opacity="0.1" d="M38.7028 128.52H29.0271V137.845H38.7028V128.52Z" fill="#27AE60"/>
<path opacity="0.1" d="M29.0271 157.711V151.63H38.7028V156.846L29.0271 157.711Z" fill="#27AE60"/>
<path opacity="0.1" d="M43.1199 205.146C61.5906 205.146 76.5642 202.786 76.5642 199.875C76.5642 196.964 61.5906 194.604 43.1199 194.604C24.6492 194.604 9.67578 196.964 9.67578 199.875C9.67578 202.786 24.6492 205.146 43.1199 205.146Z" fill="#27AE60"/>
<path d="M73.5408 73.0776C73.5408 73.0776 72.1809 72.8956 72.1809 70.9925C72.1809 69.0895 71.2081 65.5259 71.2081 65.5259C71.2081 65.5259 70.3658 59.3259 69.2034 58.3433C68.0401 57.3599 66.5459 51.5886 66.5459 51.5886C66.5459 51.5886 66.2905 48.4572 65.7694 47.7825C65.2484 47.1088 64.5444 45.4584 63.5057 43.1036C62.467 40.7489 58.1465 39.135 58.1465 39.135C58.1465 39.135 50.3166 34.765 48.0977 33.34C47.8948 33.2226 47.7051 33.0839 47.5317 32.9283C47.1453 32.4434 45.4613 32.434 45.4613 32.434C45.2853 31.3613 45.1162 30.1328 45.061 29.0201C45.061 28.9001 45.061 28.781 45.061 28.6611C47.5352 27.254 49.3988 25.0345 50.3097 22.4117C50.3512 22.285 50.3856 22.1557 50.4236 22.0264C50.575 21.9813 50.7148 21.9056 50.8338 21.8052C50.9527 21.7048 51.0482 21.5806 51.1138 21.4419C51.3105 21.0132 51.3173 20.5155 51.5658 20.1131C51.8557 19.6418 52.4079 19.3892 52.8427 19.0378C53.94 18.1378 54.223 16.626 54.1712 15.2547C54.1367 14.1394 53.9503 13.0165 54.0228 11.9105C54.0228 11.8178 54.0228 11.7251 54.0435 11.6315C54.0642 11.469 54.0884 11.2997 54.1195 11.1406C54.2885 10.3172 54.6578 9.53961 54.8648 8.72293C55.0719 7.90624 55.0926 6.98577 54.6095 6.28223C53.9021 5.24947 52.4285 5.0436 51.1345 4.95342C49.6678 4.83432 48.3738 4.98659 47.4179 3.81431C46.9795 3.20265 46.4851 2.62843 45.941 2.10098C45.7477 1.92829 43.8704 0.822357 43.8704 0.752599C42.0337 -0.0691894 39.95 -0.22402 38.0041 0.317884C37.0275 0.590112 36.113 1.03504 35.1226 1.25707C32.9969 1.74198 30.5468 1.21794 28.7386 2.39022C27.7309 3.05378 27.127 4.11376 26.5611 5.13972C26.101 5.98533 25.634 6.8318 25.16 7.67996C24.394 9.07172 23.621 10.4865 23.3001 12.0271C23.233 12.364 23.1903 12.7043 23.1724 13.0463C23.1724 13.1696 23.1724 13.2921 23.1724 13.4155C23.1724 13.4682 23.1724 13.5218 23.1724 13.5745C23.1724 13.6877 23.1724 13.8 23.1931 13.9063C23.2138 14.0127 23.1931 14.0424 23.2173 14.1122C23.2414 14.1819 23.2483 14.3385 23.269 14.4448C23.2897 14.5512 23.3311 14.74 23.3725 14.8829C23.3725 14.9459 23.4139 15.0063 23.4347 15.0692C23.4553 15.1322 23.5106 15.2913 23.5554 15.401C23.6003 15.5108 23.6037 15.5176 23.6313 15.5737C23.6831 15.6903 23.7452 15.8026 23.8073 15.9055C23.8349 15.9489 23.8556 15.9923 23.8832 16.0356C23.9779 16.1905 24.0839 16.3394 24.2007 16.4806C24.9357 17.367 26.0262 17.9319 26.8302 18.7622C26.8302 18.7954 26.8302 18.8285 26.8302 18.8617C26.8302 18.951 26.8302 19.0404 26.8302 19.134C26.8795 20.9851 27.3981 22.798 28.3412 24.4126C29.2843 26.0273 30.6231 27.3961 32.2412 28.3991C32.2412 28.525 32.2585 28.6543 32.2653 28.7844C32.3326 29.7687 32.3199 30.7572 32.2273 31.7398C32.0866 31.5807 31.9105 31.454 31.7124 31.3689C31.5141 31.2838 31.2986 31.243 31.0817 31.2481C30.9334 31.2413 30.7848 31.2532 30.64 31.2847L30.6089 31.2617V31.2915C29.8498 31.471 28.9146 32.2315 28.0208 34.3932C28.0208 34.3932 25.3016 37.3418 23.231 37.2193C21.1606 37.0959 15.9187 40.2912 15.9187 40.2912C15.9187 40.2912 10.8046 43.4822 9.70724 46.737C9.09376 48.5822 8.35724 50.3883 7.50211 52.1433L1.16294 64.6692L0 74.6319C0 74.6319 0.645321 79.0522 0.517703 79.7294C0.389997 80.4074 3.17139 86.484 3.17139 86.484C3.17139 86.484 12.3609 102.019 16.1155 102.816L16.3845 102.637C16.5459 102.716 16.7162 102.775 16.8918 102.816L17.6649 102.295C17.7127 102.879 17.6919 103.466 17.6027 104.045C17.0885 105.582 17.7995 115.592 18.7035 117.555C19.6076 119.517 19.2868 145.254 19.2868 145.254L19.1591 147.522C19.1591 147.522 19.1591 147.595 19.1901 147.721L19.1591 148.259L19.2522 148.305C19.3489 149.027 19.3174 149.759 19.1591 150.47C18.8347 151.467 18.7035 154.28 18.7035 154.28C18.7035 154.28 16.1154 170.18 17.3439 173.375C18.5724 176.569 19.6112 180.069 19.6112 180.069C19.6112 180.069 20.9051 184.055 19.6732 184.718C18.4413 185.383 14.9525 186.562 15.6634 188.219C16.319 189.753 18.8071 193.864 19.1764 194.466L19.1452 194.798L18.638 200.087C18.7201 200.787 18.917 201.468 19.2212 202.107C19.7768 203.262 20.8534 204.455 22.9101 204.326C23.2552 204.302 23.6521 204.265 24.042 204.216C27.7999 203.728 32.4241 202.114 32.4241 202.114C32.1843 201.967 31.9651 201.792 31.7719 201.592C31.5871 201.42 31.4408 201.214 31.3417 200.985C31.2426 200.757 31.1929 200.511 31.1955 200.263C31.2507 199.297 29.377 194.712 28.9077 193.579L28.8007 193.327C28.8007 193.327 33.0728 189.026 32.3619 185.22C32.3619 185.22 27.6343 182.563 29.1906 181.102C30.747 179.641 33.5283 175.457 33.5283 175.457C33.5283 175.457 33.656 159.799 33.5283 157.464C33.3952 155.841 33.4752 154.208 33.7664 152.602C33.8182 152.363 33.8803 152.128 33.9459 151.892C36.1001 152.205 38.2755 152.363 40.4541 152.367C41.2502 152.367 42.0553 152.351 42.8697 152.321C42.8697 152.542 42.8801 152.781 42.9008 153.038C43.0802 156.916 43.4149 163.721 43.6875 166.249C44.0741 169.867 46.2102 179.634 46.2102 179.634C46.2102 179.634 42.1347 182.148 46.921 188.355C46.921 188.355 46.921 190.6 46.6035 190.929C46.2643 191.994 45.9913 193.077 45.7857 194.173C45.5856 195.339 45.5027 196.525 45.8271 197.135C46.6035 198.604 51.2621 198.484 51.2621 198.484C51.2996 198.475 51.3377 198.47 51.3761 198.468C52.2554 198.377 53.1444 198.458 53.9911 198.703C54.8378 198.948 55.6252 199.353 56.3073 199.895C58.0775 201.263 64.7929 200.666 68.4335 200.227C69.8587 200.052 70.8112 199.895 70.8112 199.895C70.857 199.74 70.8729 199.578 70.8597 199.417C70.8218 198.557 70.1206 196.671 65.3726 194.987C65.3726 194.987 60.9072 192.097 60.9694 189.58H60.8693H60.3551C60.6795 189.571 60.9072 189.571 60.9072 189.571C60.9072 189.571 59.1577 183.43 59.872 182.928C60.5863 182.427 58.4468 175.623 58.4468 175.623C58.4468 175.623 57.2217 164.199 57.1527 163.402C57.1573 162.716 57.2666 162.032 57.4771 161.376L57.1527 155.11C57.1527 155.11 57.0906 153.028 57.1527 152.35C57.1459 151.763 57.0974 151.176 57.0077 150.594C56.9767 150.361 56.9457 150.119 56.9112 149.88C58.5848 149.471 59.6718 149.096 59.6718 149.096L59.4786 127.294C60.9003 124.638 61.1626 118.806 61.1556 114.675C61.1556 112.018 61.0315 110.052 61.0315 110.052L62.9743 107.001C62.9743 107.001 63.4229 103.348 62.712 102.547C62.3979 102.186 62.5395 101.81 62.7983 101.501C62.9344 101.394 63.0786 101.296 63.2296 101.209C63.2126 101.186 63.1976 101.161 63.1847 101.136C63.3205 101.027 63.4647 100.928 63.6161 100.841C63.6161 100.841 62.926 99.8113 63.5437 99.3757C64.1234 99.7543 64.641 100.056 65.0344 100.272C65.0068 100.515 64.9792 100.654 64.9792 100.654L65.1449 100.323C65.5244 100.528 65.7556 100.654 65.7556 100.654C65.7556 100.654 68.7995 94.8193 68.7333 93.9626C68.6681 93.106 70.8041 89.4794 70.8041 89.4794C70.8041 89.4794 71.0634 87.5738 72.2294 86.7767C73.3962 85.9795 73.1334 80.204 73.1334 80.204C73.1334 80.204 73.4579 77.1959 74.234 75.9701C75.011 74.745 73.5408 73.0776 73.5408 73.0776ZM15.3044 70.5178L15.3632 71.9087C15.0181 71.3745 14.7696 70.9925 14.7696 70.9925L15.3044 70.5178Z" fill="url(#paint0_linear_2_32)"/>
<path d="M66.0472 98.3115L65.3051 101.356C65.3051 101.356 59.3617 98.4272 58.2933 94.7198C57.2249 91.0124 60.0832 89.5993 60.0832 89.5993L65.6246 91.8563L66.0472 98.3115Z" fill="white"/>
<path opacity="0.1" d="M66.0472 98.3115L65.3051 101.356C65.3051 101.356 59.3617 98.4272 58.2933 94.7198C57.2249 91.0124 60.0832 89.5993 60.0832 89.5993L65.6246 91.8563L66.0472 98.3115Z" fill="black"/>
<path d="M32.3926 202.142C32.3926 202.142 26.891 204.081 23.1086 204.326C21.1005 204.454 20.0449 203.273 19.5016 202.136C19.2064 201.508 19.0139 200.841 18.9308 200.157L19.4294 194.93L19.6907 192.15L27.7265 190.145L28.8647 193.486L28.9713 193.736C29.4252 194.854 31.2614 199.386 31.2063 200.332C31.2019 200.577 31.2493 200.82 31.3456 201.046C31.442 201.273 31.5852 201.479 31.7668 201.651C31.9528 201.839 32.1632 202.005 32.3926 202.142Z" fill="white"/>
<path d="M70.2485 199.384C70.2635 199.542 70.2467 199.702 70.2009 199.855C70.2009 199.855 58.3711 201.724 55.9513 199.855C55.271 199.31 54.4782 198.904 53.6234 198.666C52.7687 198.427 51.8707 198.36 50.9871 198.468C50.9871 198.468 46.4102 198.587 45.6462 197.157C45.3282 196.558 45.4112 195.394 45.6082 194.25C45.8095 193.174 46.0772 192.11 46.4103 191.064L46.5934 190.926L47.6824 190.097L60.4314 189.739H60.5281C60.4659 192.211 64.8528 195.047 64.8528 195.047C69.5227 196.685 70.2106 198.537 70.2485 199.384Z" fill="white"/>
<path opacity="0.1" d="M70.2503 199.374C70.2626 199.534 70.245 199.695 70.1982 199.849C70.1982 199.849 58.3709 201.732 55.955 199.849C55.2745 199.299 54.4811 198.89 53.6259 198.65C52.7707 198.41 51.8723 198.343 50.9883 198.452C50.9883 198.452 46.4087 198.571 45.6448 197.132C45.3303 196.527 45.4099 195.355 45.6068 194.2C47.3696 194.368 50.1518 194.787 51.244 195.791C52.8962 197.31 55.6958 198.829 57.4101 198.951C58.7649 199.031 66.8215 199.275 70.2503 199.374Z" fill="black"/>
<path opacity="0.1" d="M32.3926 202.028C32.3926 202.028 27.0064 204.068 23.3034 204.325C21.3375 204.46 20.304 203.218 19.7721 202.021C21.1456 202.497 23.0476 202.993 24.0473 202.538C25.2323 201.993 29.4336 201.646 31.79 201.497C31.9677 201.7 32.1702 201.879 32.3926 202.028Z" fill="black"/>
<path d="M40.7193 45.0092C36.1701 43.2763 30.3183 37.5485 31.7796 34.8722C32.1025 34.1958 32.2953 33.4676 32.3482 32.7233C32.4422 31.7118 32.456 30.6951 32.3896 29.6819C32.287 28.0214 32.0833 26.3676 31.7796 24.7308C31.7796 24.7308 45.9819 25.0456 45.1547 27.0966C44.9135 27.7015 44.8721 28.7453 44.941 29.9117C45.01 31.0771 45.1788 32.4051 45.3581 33.5238C45.6027 35.0542 45.8543 36.2273 45.8543 36.2273C45.8543 36.2273 44.9823 37.42 44.4758 37.4838C43.9692 37.5485 47.2466 47.4933 40.7193 45.0092Z" fill="#CF6F80"/>
<path opacity="0.1" d="M29.0271 193.699L28.919 193.809C24.6234 188.947 19.4282 195.01 19.4282 195.01L19.3514 194.879L19.6165 192.129L27.765 190.145L28.919 193.45L29.0271 193.699Z" fill="black"/>
<path opacity="0.1" d="M60.5782 190.105C60.5782 190.105 57.4255 190.045 55.7441 191.466C54.0627 192.889 45.9357 191.772 46.286 191.466C46.3882 191.311 46.4506 191.136 46.4682 190.953L47.5716 190.105L60.4907 189.739C60.5397 189.974 60.5782 190.105 60.5782 190.105Z" fill="black"/>
<path d="M34.4602 151.279C34.2282 151.827 34.0517 152.396 33.933 152.977C33.6438 154.569 33.5635 156.19 33.6937 157.8C33.8221 160.118 33.6937 175.656 33.6937 175.656C33.6937 175.656 30.9504 179.8 29.4175 181.26C27.8846 182.721 32.5389 185.344 32.5389 185.344C33.2325 189.123 29.0291 193.389 29.0291 193.389C24.7564 188.454 19.5889 194.605 19.5889 194.605C19.5889 194.605 16.7797 189.967 16.0791 188.312C15.3785 186.655 18.8224 185.513 20.0327 184.837C21.2431 184.161 19.9703 180.2 19.9703 180.2C19.9703 180.2 18.9507 176.726 17.7369 173.556C16.523 170.386 19.0756 154.611 19.0756 154.611C19.0756 154.611 19.2073 151.805 19.523 150.829C19.6804 150.123 19.7121 149.398 19.6166 148.682C19.5958 148.44 19.5715 148.242 19.5542 148.102C19.5368 147.963 19.523 147.904 19.523 147.904L19.5715 147.824L21.3056 144.737C21.3056 144.737 35.2925 149.335 34.4602 151.279Z" fill="#27AE60"/>
<path d="M60.5782 189.747C60.5782 189.747 57.4255 189.684 55.7441 191.075C54.0627 192.466 45.9359 191.38 46.2861 191.075C46.6364 190.769 46.6049 188.513 46.6049 188.513C41.8374 182.341 45.9043 179.839 45.9043 179.839C45.9043 179.839 43.778 170.13 43.3927 166.528C43.123 164.016 42.7902 157.234 42.6116 153.394C42.5345 151.735 42.4889 150.589 42.4889 150.589L46.3492 149.863L46.8501 149.769L56.2451 147.98C56.2451 147.98 56.5043 149.64 56.6794 150.998C56.7681 151.577 56.816 152.162 56.8231 152.747C56.7635 153.411 56.8231 155.492 56.8231 155.492L57.1454 161.719C56.9374 162.373 56.8289 163.051 56.8231 163.734C56.8896 164.53 58.1121 175.885 58.1121 175.885C58.1121 175.885 60.2384 182.664 59.5133 183.151C58.7882 183.64 60.5782 189.747 60.5782 189.747Z" fill="#27AE60"/>
<path opacity="0.1" d="M44.9792 27.1145C44.7445 27.7244 44.7043 28.7768 44.7713 29.9516C42.9214 31.0831 40.7945 31.6624 38.6354 31.6216C36.4763 31.5799 34.3722 30.9214 32.5651 29.7202C32.4653 28.0469 32.2672 26.3803 31.9718 24.7308C31.9718 24.7308 45.7835 25.0481 44.9792 27.1145Z" fill="black"/>
<path d="M50.475 19.8C50.5124 22.792 49.3076 25.6759 47.1258 27.8172C44.9438 29.9584 41.9636 31.1809 38.8404 31.2174C35.7173 31.2532 32.7073 30.0988 30.4725 28.0086C28.2376 25.9175 26.9611 23.0625 26.9237 20.0697C26.9237 19.9779 26.9237 19.8919 26.9237 19.8C26.9237 16.8064 28.1647 13.9361 30.3737 11.8195C32.5827 9.70294 35.5788 8.5145 38.7027 8.5145C41.8268 8.5145 44.8228 9.70294 47.0318 11.8195C49.2409 13.9361 50.4818 16.8064 50.4818 19.8H50.475Z" fill="#CF6F80"/>
<path opacity="0.1" d="M40.7193 45.0126C36.1701 43.295 30.3183 37.6208 31.7796 34.9691C32.1025 34.2996 32.2953 33.5774 32.3482 32.8398L38.5757 37.8147L42.4287 40.885L45.3581 33.6429C45.6027 35.1597 45.8543 36.3217 45.8543 36.3217C45.8543 36.3217 44.9823 37.5034 44.4758 37.5672C43.9692 37.631 47.2466 47.4737 40.7193 45.0126Z" fill="black"/>
<path d="M56.7922 66.7679L51.6094 150.796L44.8503 151.224L27.3445 102.501L30.2157 44.6553L30.8236 32.434L38.6062 38.6025L42.4461 41.6421L45.4513 34.2605L51.0393 38.9607L56.7922 66.7679Z" fill="#27AE60"/>
<path opacity="0.1" d="M34.4599 151.169C34.2254 151.711 34.0469 152.272 33.9269 152.846C28.9012 152.124 24.0199 150.703 19.4461 148.631L19.3514 148.585L19.383 148.059V147.785L21.1361 144.737C21.1361 144.737 35.3014 149.25 34.4599 151.169Z" fill="black"/>
<path opacity="0.1" d="M46.6957 152.817C45.3461 153.031 43.9848 153.176 42.618 153.251C42.5369 151.544 42.4889 150.367 42.4889 150.367L46.5741 149.602L46.6957 152.817Z" fill="black"/>
<path opacity="0.1" d="M56.7921 151.02C54.3405 151.638 50.5508 152.333 47.1647 151.899L47.1165 149.783L56.3646 147.98C56.3646 147.98 56.6094 149.639 56.7921 151.02Z" fill="black"/>
<path opacity="0.1" d="M47.1164 152.354C32.8861 154.677 19.8532 148.017 19.8532 148.017L19.9781 145.761C19.9781 145.761 20.3009 120.18 19.4054 118.219C18.51 116.258 17.8124 106.326 18.3191 104.81C18.8258 103.293 16.4692 80.3971 16.4692 80.3971L16.0874 71.1065L2.10339 65.6739L8.35093 53.2211C9.19452 51.4755 9.92027 49.6796 10.5236 47.8455C11.61 44.6102 16.6531 41.4345 16.6531 41.4345C16.6531 41.4345 21.8246 38.2622 23.8689 38.3813C25.9132 38.5013 28.5927 35.5739 28.5927 35.5739C30.5711 30.753 32.3619 32.9197 32.3619 32.9197C32.3619 33.152 32.3619 32.9197 32.2648 33.6335C31.5707 38.9258 43.4894 55.6499 43.6594 55.9485L44.8083 82.3819L45.9572 115.833L47.1164 152.354Z" fill="black"/>
<path d="M45.4337 151.543C31.3396 153.866 18.4281 147.206 18.4281 147.206L18.5553 144.95C18.5553 144.95 18.8715 119.369 17.9846 117.408C17.0977 115.447 16.4067 105.505 16.9121 103.976C17.4175 102.446 15.0695 79.5737 15.0695 79.5737L14.688 70.2822L0.841431 64.8504L7.02908 52.3968C7.8627 50.6512 8.5814 48.857 9.18095 47.0246C10.2569 43.7995 15.2689 40.6204 15.2689 40.6204C15.2689 40.6204 20.3909 37.4481 22.4122 37.5672C24.4335 37.6871 27.1011 34.7632 27.1011 34.7632C29.0639 29.9422 31.2262 32.109 31.2262 32.109C31.2262 32.3412 31.0199 32.4408 31.1299 32.8219C32.6424 37.956 41.8689 54.8392 42.0374 55.1378L43.1752 81.5711L44.289 115.039L45.4337 151.543Z" fill="white"/>
<path opacity="0.1" d="M42.9095 56.3543C41.3869 55.7435 33.3211 46.8893 33.3211 46.8893V44.874C33.0277 44.2104 31.2806 44.6153 29.8684 45.0798L30.4761 32.8398L31.1666 33.3911C32.6755 38.5234 42.7438 56.0591 42.9095 56.3543Z" fill="black"/>
<path d="M43.3303 55.9485C41.8046 55.3343 33.741 46.4801 33.741 46.4801V44.4605C33.4476 43.7961 31.7044 44.2019 30.2892 44.6664L30.8864 32.434L31.5767 32.9818C33.099 38.1099 43.1611 55.6499 43.3303 55.9485Z" fill="white"/>
<path opacity="0.1" d="M20.1228 99.8964C20.3113 99.8964 29.8962 98.924 29.8962 98.924C29.8962 98.924 35.6999 109.937 35.3194 112.613C34.9389 115.288 34.2498 117.663 31.9153 117.243C29.5808 116.823 19.3514 117.574 19.3514 117.574L20.1228 99.8964Z" fill="black"/>
<path d="M19.702 99.0865C19.8939 99.0865 29.4769 98.1133 29.4769 98.1133C29.4769 98.1133 35.2761 109.15 34.8991 111.799C34.522 114.446 33.8263 116.852 31.4956 116.432C29.165 116.011 18.9308 116.763 18.9308 116.763L19.702 99.0865Z" fill="white"/>
<path d="M26.7226 94.0588C26.7226 94.0588 35.563 98.656 35.7524 100.055C35.942 101.454 31.253 99.4421 30.2402 99.1954C29.5731 99.0422 28.8946 98.9401 28.2109 98.8891L21.4548 99.0661L26.7226 94.0588Z" fill="#CF6F80"/>
<path opacity="0.1" d="M40.3856 57.165C40.8503 57.165 41.2269 56.7116 41.2269 56.1518C41.2269 55.5921 40.8503 55.1378 40.3856 55.1378C39.9209 55.1378 39.5442 55.5921 39.5442 56.1518C39.5442 56.7116 39.9209 57.165 40.3856 57.165Z" fill="black"/>
<path d="M40.3856 56.7601C40.8503 56.7601 41.2269 56.3058 41.2269 55.7461C41.2269 55.1863 40.8503 54.7328 40.3856 54.7328C39.9209 54.7328 39.5442 55.1863 39.5442 55.7461C39.5442 56.3058 39.9209 56.7601 40.3856 56.7601Z" fill="#3F3D56"/>
<path opacity="0.1" d="M42.0683 95.6802C42.5329 95.6802 42.9096 95.3178 42.9096 94.8695C42.9096 94.422 42.5329 94.0588 42.0683 94.0588C41.6036 94.0588 41.2269 94.422 41.2269 94.8695C41.2269 95.3178 41.6036 95.6802 42.0683 95.6802Z" fill="black"/>
<path d="M42.0683 95.6803C42.5329 95.6803 42.9096 95.2268 42.9096 94.667C42.9096 94.1073 42.5329 93.6538 42.0683 93.6538C41.6036 93.6538 41.2269 94.1073 41.2269 94.667C41.2269 95.2268 41.6036 95.6803 42.0683 95.6803Z" fill="#3F3D56"/>
<path opacity="0.1" d="M41.2269 76.626C41.6916 76.626 42.0683 76.1717 42.0683 75.6119C42.0683 75.0522 41.6916 74.5988 41.2269 74.5988C40.7622 74.5988 40.3855 75.0522 40.3855 75.6119C40.3855 76.1717 40.7622 76.626 41.2269 76.626Z" fill="black"/>
<path d="M41.2269 76.2202C41.6916 76.2202 42.0683 75.7667 42.0683 75.207C42.0683 74.6472 41.6916 74.1929 41.2269 74.1929C40.7622 74.1929 40.3855 74.6472 40.3855 75.207C40.3855 75.7667 40.7622 76.2202 41.2269 76.2202Z" fill="#3F3D56"/>
<path d="M62.7911 98.7002C62.7911 98.7002 63.4247 99.6156 62.7911 100.026C62.1574 100.437 62.853 101.492 62.853 101.492C62.853 101.492 61.2723 102.381 61.9679 103.187C62.6636 103.993 62.2228 107.611 62.2228 107.611L60.3218 110.659C60.3218 110.659 60.4354 112.612 60.4423 115.252C60.4423 119.371 60.1909 125.161 58.7995 127.801L58.9855 149.46C58.9855 149.46 52.3284 151.804 46.7562 151.088L45.9296 116.333C45.9296 116.333 47.135 96.6236 47.5793 92.8431C47.8393 90.8805 47.9452 88.9017 47.8961 86.9238C47.8961 86.9238 47.7068 81.0071 47.0696 78.2644C47.0696 78.2644 46.3808 66.3655 46.312 63.0724C46.2809 61.4977 46.3671 56.9013 46.4635 52.5304C46.5702 47.7511 46.6908 43.244 46.6908 43.244L45.4337 33.6632C45.4337 33.6632 46.6908 33.5442 47.0696 34.0282C47.2393 34.1805 47.4238 34.3175 47.6206 34.4366C49.7937 35.8488 57.4599 40.1933 57.4599 40.1933C57.4599 40.1933 61.7027 41.8182 62.7187 44.1466C63.7346 46.4741 64.4407 48.1262 64.9331 48.7889C65.4256 49.4525 65.6943 52.5695 65.6943 52.5695C65.6943 52.5695 67.1547 58.3067 68.2941 59.2791C69.4345 60.2506 70.2538 66.4191 70.2538 66.4191L60.1806 74.0466C60.1806 74.0466 59.2955 86.735 59.106 87.2258C58.9167 87.7158 62.7911 98.7002 62.7911 98.7002Z" fill="white"/>
<path d="M63.1888 98.5709C63.1888 98.5709 63.8192 99.4889 63.1888 99.9006C62.5584 100.313 63.2474 101.37 63.2474 101.37C63.2474 101.37 61.6662 102.261 62.3621 103.069C63.0579 103.877 62.617 107.503 62.617 107.503L60.7223 110.559C60.7223 110.559 60.836 112.517 60.8463 115.163C60.8463 119.293 60.5948 125.097 59.2031 127.743L59.3926 149.455C59.3926 149.455 52.7335 151.806 47.1597 151.087L46.3363 116.247C46.3363 116.247 47.5386 96.4901 47.9864 92.7002C48.2469 90.7325 48.3516 88.7486 48.3 86.7656C48.3 86.7656 48.1104 80.8344 47.4766 78.0858C47.4766 78.0858 46.7876 66.1571 46.7153 62.8563C46.6842 61.2765 46.7704 56.6691 46.8669 52.2879C46.9736 47.4967 47.0942 42.9794 47.0942 42.9794L45.4337 33.2447C45.4337 33.2447 47.0942 33.2447 47.4766 33.7407C47.6448 33.8955 47.8295 34.0325 48.0278 34.149C50.1981 35.5655 57.8664 39.9202 57.8664 39.9202C57.8664 39.9202 62.1002 41.5494 63.1337 43.8837C64.1672 46.2172 64.8561 47.8727 65.3488 48.538C65.8414 49.2024 66.1101 52.3279 66.1101 52.3279C66.1101 52.3279 67.5709 58.0787 68.7113 59.0528C69.8517 60.0268 70.6745 66.2107 70.6745 66.2107L60.5983 73.8569C60.5983 73.8569 59.7129 86.5759 59.52 87.0684C59.3271 87.5602 63.1888 98.5709 63.1888 98.5709Z" fill="white"/>
<path opacity="0.1" d="M50.883 45.8906L51.7472 48.4529L47.211 53.1106C47.312 48.316 47.4262 43.7944 47.4262 43.7944L45.8544 34.0555C45.8544 34.0555 47.4262 34.0555 47.7881 34.5514C47.9473 34.7063 48.1222 34.8441 48.31 34.9606L52.1645 46.3032L50.883 45.8906Z" fill="black"/>
<path d="M50.7782 45.0849L51.6968 47.643L46.8791 52.2998C46.983 47.5061 47.1078 42.9854 47.1078 42.9854L45.4337 33.2447C45.4337 33.2447 47.1078 33.2447 47.4891 33.7407C47.659 33.8946 47.8449 34.0316 48.0436 34.1499L52.1647 45.5001L50.7782 45.0849Z" fill="white"/>
<path opacity="0.1" d="M50.475 19.8494C50.4763 21.0429 50.2811 22.2288 49.8967 23.3637C49.8318 23.3739 49.7655 23.3722 49.7017 23.3569C49.6378 23.3424 49.5777 23.3152 49.5249 23.2778C49.432 20.2969 47.9105 17.4938 46.0345 15.1126C45.507 14.3938 44.8685 13.7574 44.1413 13.224C43.4053 12.6932 42.49 12.4439 41.5736 12.5256C40.5409 12.6617 39.6287 13.3372 38.5857 13.4231C37.2089 13.5328 35.9765 12.6149 34.6101 12.5715C34.0543 12.5766 33.5061 12.6949 33.0021 12.9203C32.4981 13.1449 32.0498 13.4716 31.6876 13.8774C30.969 14.6924 30.4355 15.6435 30.1215 16.6694C29.5802 18.2254 29.2855 19.8519 29.2471 21.4921C29.2299 22.4194 29.137 23.5823 28.242 23.92C28.3098 23.2386 28.2293 22.5512 28.0059 21.9004C27.7825 21.2505 27.421 20.6524 26.9443 20.1437L26.9237 20.1208C26.9237 20.028 26.9237 19.9421 26.9237 19.8494C26.9237 16.843 28.1647 13.9599 30.3737 11.834C32.5827 9.70804 35.5788 8.5145 38.7027 8.5145C41.8268 8.5145 44.8228 9.70804 47.0318 11.834C49.2409 13.9599 50.4818 16.843 50.4818 19.8494H50.475Z" fill="black"/>
<path d="M43.8034 1.9538C42.0152 1.14902 39.9813 0.997591 38.0841 1.52588C37.1309 1.79556 36.2327 2.23368 35.2657 2.45401C33.201 2.93126 30.7921 2.41489 29.02 3.5693C28.0357 4.22775 27.4438 5.26733 26.8932 6.28138L25.5168 8.78502C24.7666 10.1581 24.0095 11.5532 23.6963 13.0633C23.3833 14.5741 23.5725 16.2653 24.5739 17.4827C25.3 18.3649 26.3805 18.9213 27.172 19.7533C27.6475 20.2611 28.0079 20.8575 28.2306 21.5049C28.4533 22.1523 28.5334 22.8362 28.4659 23.5151C29.3606 23.1859 29.4501 22.0238 29.4707 21.1025C29.5093 19.4725 29.804 17.8579 30.3448 16.3113C30.6589 15.2921 31.1922 14.3478 31.9105 13.5371C32.2725 13.1339 32.7204 12.8097 33.2244 12.5851C33.7282 12.3614 34.2764 12.2423 34.8322 12.2372C36.2086 12.2831 37.444 13.1951 38.8067 13.0828C39.8391 13.0012 40.7544 12.3299 41.7937 12.1947C42.7101 12.1113 43.6257 12.3597 44.3609 12.8889C45.0884 13.4172 45.7257 14.0501 46.2501 14.7647C48.129 17.1339 49.6535 19.9047 49.7429 22.8762C50.1317 23.1459 50.6927 22.7911 50.8854 22.37C51.0781 21.9481 51.0849 21.4547 51.3293 21.0531C51.6115 20.5895 52.1517 20.3394 52.575 19.9906C53.6487 19.105 53.9171 17.6146 53.8758 16.2619C53.8345 14.9093 53.5592 13.5371 53.8276 12.2074C53.9894 11.395 54.3542 10.6285 54.5537 9.82203C54.7533 9.01556 54.7774 8.11041 54.306 7.41623C53.6177 6.39963 52.1689 6.19544 50.906 6.10016C49.4711 5.98192 48.1875 6.13334 47.2721 4.97807C46.8414 4.37577 46.3579 3.81005 45.8268 3.28686C45.6375 3.11247 43.8034 2.02611 43.8034 1.9538Z" fill="#512E4E"/>
<path opacity="0.1" d="M6.41994 72.0525L2.8231 65.679L1.68274 75.5141C1.68274 75.5141 2.31668 79.8842 2.18915 80.5546C2.06171 81.2241 4.78693 87.2309 4.78693 87.2309C4.78693 87.2309 13.7894 102.595 17.4654 103.383L29.8685 94.8814L26.5747 90.8745C26.5747 90.8745 25.4344 90.4492 25.1484 90.8745C25.1484 90.8745 19.0296 80.7953 18.3992 80.0688C17.7687 79.3431 17.8892 77.8808 17.8892 77.8808C17.8892 77.8808 16.9383 76.9109 17.2553 75.9998C17.5723 75.0887 15.4362 71.9334 15.4362 71.9334L17.4 70.1741L6.41994 72.0525Z" fill="black"/>
<path d="M2.93112 64.8682L1.98099 65.599L0.841431 75.4554C0.841431 75.4554 1.47484 79.8348 1.34749 80.5061C1.22014 81.1773 3.94677 87.1969 3.94677 87.1969C3.94677 87.1969 12.9392 102.593 16.6126 103.383L29.027 94.8635L25.7324 90.8482C25.7324 90.8482 24.5928 90.4219 24.307 90.8482C24.307 90.8482 18.1962 80.7476 17.5628 80.0194C16.9293 79.2921 17.0566 77.8271 17.0566 77.8271C17.0566 77.8271 16.1065 76.8548 16.4232 75.942C16.7399 75.0292 14.5848 71.8671 14.5848 71.8671L16.5471 70.1035L2.93112 64.8682Z" fill="white"/>
<path opacity="0.1" d="M61.8053 103.628C62.4872 104.437 62.0576 108.068 62.0576 108.068L60.1756 111.105C60.1756 111.105 60.2881 113.067 60.2949 115.715L57.1308 116.679C56.8444 116.767 56.5408 116.786 56.2452 116.735C55.9498 116.684 55.671 116.566 55.4321 116.388C55.1933 116.211 55.0012 115.982 54.8721 115.717C54.7429 115.453 54.6802 115.162 54.6895 114.87L55.2385 97.7075L62.6202 100.459C61.9928 100.884 62.6816 101.929 62.6816 101.929C62.6816 101.929 61.1166 102.82 61.8053 103.628Z" fill="black"/>
<path d="M62.2254 103.221C62.9079 104.026 62.4779 107.655 62.4779 107.655L60.601 110.692C60.601 110.692 60.7137 112.649 60.7239 115.295L57.4991 116.275C57.219 116.361 56.9221 116.38 56.633 116.33C56.3439 116.282 56.071 116.166 55.8372 115.994C55.6034 115.82 55.4154 115.595 55.289 115.338C55.1625 115.08 55.1013 114.797 55.1104 114.511L55.6597 97.3026L63.0444 100.057C62.4131 100.483 63.1024 101.526 63.1024 101.526C63.1024 101.526 61.5361 102.414 62.2254 103.221Z" fill="white"/>
<path d="M64.785 95.0345C64.785 95.0345 64.2853 98.0622 63.0342 98.24C61.7832 98.417 61.2222 103.138 59.9745 102.974C58.7268 102.81 59.5529 98.582 59.5972 97.7628C59.6414 96.9435 58.2373 93.5509 59.2843 92.7801C60.3315 92.0094 63.6631 92.7801 63.6631 92.7801L64.785 95.0345Z" fill="#CF6F80"/>
<path opacity="0.1" d="M67.1917 71.1286L69.58 66.4897C69.58 66.4897 70.5343 70.0253 70.5343 71.9139C70.5343 73.8024 71.8651 73.9879 71.8651 73.9879C71.8651 73.9879 73.323 75.6451 72.554 76.8539C71.7858 78.0637 71.4789 81.059 71.4789 81.059C71.4789 81.059 71.7302 86.7877 70.5899 87.5797C69.4495 88.3717 69.1937 90.2637 69.1937 90.2637C69.1937 90.2637 67.1018 93.858 67.1679 94.7129C67.2332 95.5679 64.2521 101.356 64.2521 101.356C64.2521 101.356 65.7099 94.1634 57.2147 91.0549C57.2147 91.0549 57.1492 88.6167 57.7834 87.9472C58.4175 87.2777 59.4066 86.9536 58.7862 83.5865C58.1659 80.2202 58.607 76.1615 58.607 75.3499C58.607 74.5383 60.5094 69.4783 60.5094 69.4783L67.1917 71.1286Z" fill="black"/>
<path d="M68.3285 65.679L70.4187 66.3442C70.4187 66.3442 71.3738 69.8942 71.3738 71.7913C71.3738 73.6876 72.7056 73.8739 72.7056 73.8739C72.7056 73.8739 74.1643 75.5379 73.3953 76.7519C72.6262 77.9667 72.3158 80.9739 72.3158 80.9739C72.3158 80.9739 72.5707 86.7264 71.4294 87.5219C70.2873 88.3173 70.0492 90.2169 70.0492 90.2169C70.0492 90.2169 67.9554 93.8274 68.0216 94.6857C68.0868 95.5441 65.0995 101.356 65.0995 101.356C65.0995 101.356 66.5586 94.1336 58.0557 91.0124C58.0557 91.0124 57.9937 88.5632 58.6284 87.8911C59.263 87.219 60.253 86.8932 59.6321 83.5125C59.0112 80.1326 59.4527 76.0568 59.4527 75.241C59.4527 74.426 61.3569 69.3455 61.3569 69.3455L68.3285 65.679Z" fill="white"/>
<path opacity="0.1" d="M22.2961 186.162C22.2961 186.162 25.6169 183.769 27.7963 185.508C29.9757 187.247 22.2961 186.162 22.2961 186.162Z" fill="black"/>
<path opacity="0.1" d="M48.3784 180.026C48.3784 180.026 51.3192 179.678 53.7888 182.124C56.2584 184.57 48.3784 180.026 48.3784 180.026Z" fill="black"/>
<g opacity="0.1">
<path opacity="0.1" d="M52.5059 19.3543C52.0822 19.7091 51.538 19.9583 51.2556 20.4262C51.0144 20.8277 51.0075 21.3254 50.8147 21.7542C50.6218 22.1821 50.0603 22.5377 49.6677 22.2654C49.5781 19.2777 48.0522 16.4729 46.175 14.0824C45.6501 13.3619 45.0122 12.7247 44.284 12.1939C43.5473 11.6588 42.6298 11.4078 41.711 11.4903C40.6777 11.6264 39.7684 12.3036 38.7247 12.3895C37.347 12.4993 36.1104 11.5796 34.7429 11.5362C34.1874 11.5405 33.6392 11.6596 33.1352 11.885C32.6314 12.1105 32.1836 12.438 31.8221 12.8447C31.1031 13.6613 30.5692 14.615 30.2549 15.6426C29.7136 17.2029 29.4186 18.832 29.38 20.4764C29.3593 21.402 29.2698 22.5572 28.3811 22.9026C28.4017 23.1485 28.4017 23.396 28.3811 23.6427C29.2801 23.311 29.3697 22.1387 29.3903 21.2097C29.429 19.5653 29.724 17.9362 30.2652 16.376C30.5795 15.3483 31.1134 14.3955 31.8324 13.578C32.1942 13.1713 32.642 12.8438 33.1457 12.6184C33.6495 12.3921 34.1976 12.2721 34.7533 12.267C36.131 12.313 37.3711 13.2326 38.7351 13.1203C39.7684 13.0369 40.6846 12.3597 41.7213 12.2236C42.6396 12.1403 43.5571 12.3895 44.2943 12.9238C45.0226 13.4563 45.6605 14.0952 46.1853 14.8166C48.0626 17.2062 49.5885 20.0017 49.678 22.9988C50.0707 23.271 50.6321 22.9128 50.825 22.4875C51.0179 22.063 51.0247 21.5644 51.2659 21.1595C51.5484 20.6916 52.0925 20.4398 52.5162 20.0876C53.5909 19.1944 53.8595 17.6912 53.8182 16.3266C53.8182 16.2832 53.8182 16.2432 53.8182 16.2007C53.7493 17.3892 53.4221 18.5938 52.5059 19.3543Z" fill="black"/>
<path opacity="0.1" d="M27.0757 19.1221C26.2869 18.2816 25.2053 17.7175 24.4786 16.8277C23.8647 16.0425 23.515 15.0948 23.4763 14.1122C23.3681 15.3406 23.7241 16.5657 24.4786 17.5619C25.2053 18.4509 26.2869 19.0123 27.0757 19.852C27.8375 20.6729 28.2954 21.7142 28.3777 22.8133C28.4295 22.1446 28.3408 21.4734 28.1171 20.8397C27.8934 20.205 27.5391 19.6206 27.0757 19.1221Z" fill="black"/>
<path opacity="0.1" d="M54.4864 9.09639C54.2832 9.90967 53.9215 10.683 53.7562 11.5031C53.6569 12.0577 53.6211 12.6209 53.6494 13.1832C53.6608 12.8659 53.6964 12.5494 53.7562 12.2372C53.9215 11.4171 54.2832 10.6438 54.4864 9.83056C54.6031 9.38138 54.6416 8.9169 54.6001 8.45581C54.5778 8.67189 54.5399 8.88626 54.4864 9.09639Z" fill="black"/>
</g>
<defs>
<linearGradient id="paint0_linear_2_32" x1="65401.8" y1="179694" x2="65401.8" y2="53958.7" gradientUnits="userSpaceOnUse">
<stop stop-color="#808080" stop-opacity="0.25"/>
<stop offset="0.54" stop-color="#808080" stop-opacity="0.12"/>
<stop offset="1" stop-color="#808080" stop-opacity="0.1"/>
</linearGradient>
</defs>
</svg>
