<svg width="79" height="198" viewBox="0 0 79 198" fill="none" xmlns="http://www.w3.org/2000/svg">
<g filter="url(#filter0_i_2_104)">
<path d="M48.9225 23.1162L28.191 26.5873C27.6788 26.6732 27.1524 26.569 26.7138 26.2938C26.2751 26.0185 25.9552 25.5921 25.8161 25.0979C24.3184 19.7537 21.1867 12.7829 24.2272 9.28312C24.3821 7.81115 25.1054 6.45466 26.2466 5.49593C27.3878 4.53806 28.859 4.05175 30.3538 4.1386C34.0574 -1.59211 40.2261 -0.731507 44.3954 2.84726C48.5914 4.27841 50.1734 6.82115 49.6202 10.2714C51.4329 11.8397 52.3833 13.6061 52.5836 15.5453C52.6786 16.6247 52.5398 17.7111 52.1763 18.7333C51.8127 19.7545 51.2329 20.6881 50.4755 21.4714L48.9225 23.1162Z" fill="#2F2E41"/>
<path d="M45.6994 39.2506L29.6277 38.3153C31.2027 34.7417 31.8319 31.301 31.2033 28.0358H43.1783C43.1512 30.5429 44.4132 34.8798 45.6994 39.2506Z" fill="#9F616A"/>
<path d="M26.3536 186.049L25.6944 194.957C25.6646 195.361 25.7223 195.765 25.8637 196.145C26.0051 196.524 26.2269 196.869 26.5144 197.156C26.8017 197.444 27.1481 197.668 27.53 197.812C27.912 197.957 28.3208 198.019 28.729 197.994L33.3579 197.717C33.5723 197.704 33.7813 197.645 33.97 197.544C34.1586 197.441 34.3222 197.3 34.4492 197.129C34.5763 196.958 34.6636 196.76 34.705 196.552C34.7463 196.344 34.7408 196.129 34.6887 195.923L32.1194 185.764L26.3536 186.049Z" fill="#FFFBFB"/>
<path d="M41.339 185.764L38.7696 195.923C38.7175 196.129 38.712 196.344 38.7534 196.552C38.7947 196.76 38.8821 196.958 39.0091 197.129C39.1362 197.3 39.2998 197.441 39.4884 197.544C39.677 197.645 39.886 197.704 40.1005 197.717L44.7292 197.994C45.1375 198.019 45.5463 197.957 45.9283 197.812C46.3103 197.668 46.6566 197.444 46.944 197.156C47.2313 196.869 47.4532 196.524 47.5946 196.145C47.7361 195.765 47.7938 195.361 47.7639 194.957L47.1047 186.049L41.339 185.764Z" fill="#FFFAFA"/>
<path d="M47.4035 187.286L41.1572 186.666L34.9383 120.956L32.588 186.454L26.4511 186.237L16.1075 95.526H55.6258L47.4035 187.286Z" fill="#27AE60"/>
<path d="M37.5069 31.8178C44.0983 31.8178 49.4418 26.5352 49.4418 20.0194C49.4418 13.5045 44.0983 8.22191 37.5069 8.22191C30.9154 8.22191 25.5719 13.5045 25.5719 20.0194C25.5719 26.5352 30.9154 31.8178 37.5069 31.8178Z" fill="#9F616A"/>
<path d="M50.9582 14.3842C46.1141 13.5496 41.3515 13.435 36.7219 14.4928C33.7728 15.4471 30.2312 15.3595 26.2925 14.5735V6.61704L47.5559 6.99655L50.9582 14.3842Z" fill="#2F2E41"/>
<path d="M45.4497 29.486C40.2284 31.6328 34.7537 31.5459 29.0552 29.486C30.7133 26.688 28.2348 24.497 26.9623 21.6729L48.2402 21.0476C46.613 23.5009 44.2121 26.3997 45.4497 29.486Z" fill="white"/>
<path d="M25.4973 20.0619L25.2881 20.3094L27.3809 22.0341L27.5901 21.7858L25.4973 20.0619Z" fill="white"/>
<path d="M48.6257 23.5469L44.9623 29.2359L45.2379 29.4096L48.9013 23.7206L48.6257 23.5469Z" fill="white"/>
<path d="M25.8788 23.5469L25.6031 23.7206L29.2657 29.4096L29.5414 29.2359L25.8788 23.5469Z" fill="white"/>
<path d="M14.8167 73.8276L5.67786 68.2202L13.4717 45.6561C14.341 43.3278 16.0059 41.373 18.1787 40.1294L20.8042 38.6271L21.0324 61.3901L14.8167 73.8276Z" fill="#27AE60"/>
<path d="M54.3185 84.7862L52.9665 73.3387C52.8943 67.2962 53.9341 61.4544 56.4135 56.0719L57.6744 39.2506L43.8086 33.6432C43.7662 33.9228 43.7299 34.2016 43.6894 34.4812L37.1909 37.6926L30.8532 36.2693L30.8883 34.2659L18.2831 39.8733C22.4516 59.0306 20.178 78.9244 13.0096 102.422L29.6158 106.91L29.7539 99.0283L44.5536 97.9836C44.706 100.54 44.8286 103.053 44.8997 105.508C53.2507 108.548 53.5375 108.498 61.1464 104.146C58.1165 97.8481 55.717 91.295 54.3185 84.7862Z" fill="#27AE60"/>
<path d="M75.6369 71.0235L67.1281 68.2202L53.5184 52.5582L57.6744 39.2506L76.5817 65.417L75.6369 71.0235Z" fill="#27AE60"/>
<path d="M48.9711 83.1484C49.1104 83.7528 49.4862 84.2773 50.0162 84.6073C50.5462 84.9382 51.1871 85.0476 51.7984 84.9113L59.0213 83.2943L57.9775 78.7377L50.7544 80.3538C50.1431 80.491 49.6118 80.8618 49.2773 81.3864C48.9429 81.91 48.8328 82.544 48.9711 83.1484Z" fill="#E6E6E6"/>
<path d="M55.4685 77.8771L59.565 85.3533C66.4559 83.4532 72.4272 77.4646 78.1579 70.4008L76.5826 65.417L66.8129 67.9085L55.4685 77.8771Z" fill="#27AE60"/>
<path d="M2.05383 54.4263L9.91842 55.814L27.8947 81.0798L18.3448 78.8593L2.05383 54.4263Z" fill="#E6E6E6"/>
<path d="M0.658853 54.1171C0.539011 54.1188 0.421859 54.1518 0.319646 54.2143C0.217433 54.276 0.133891 54.3637 0.077791 54.4688C0.0216911 54.573 -0.00496888 54.6911 0.000762695 54.8092C0.00640743 54.9273 0.0440978 55.042 0.110011 55.141L16.913 80.3425C17.0067 80.4832 17.1516 80.5831 17.3177 80.6213L25.1356 82.4398C25.2674 82.471 25.4055 82.4606 25.5316 82.412C25.6578 82.3633 25.7659 82.2782 25.8418 82.1671C25.9177 82.0559 25.9576 81.9248 25.9564 81.7911C25.9551 81.6573 25.9127 81.5271 25.8348 81.4176L7.38616 55.4875C7.33605 55.4171 7.27248 55.3572 7.19893 55.3103C7.12529 55.2643 7.04322 55.233 6.95725 55.2174L0.78486 54.1284C0.743263 54.1206 0.701058 54.1171 0.658853 54.1171Z" fill="#3F3D56"/>
<path d="M11.1406 72.1351L11.6077 76.7855L18.9769 76.0621C19.6007 76.0004 20.1743 75.6973 20.5716 75.218C20.9689 74.7386 21.1573 74.1229 21.0954 73.5063C21.0335 72.8898 20.7263 72.3227 20.2415 71.9301C19.7567 71.5376 19.1338 71.3509 18.51 71.4126L11.1406 72.1351Z" fill="#E6E6E6"/>
<path d="M4.73267 71.5967C4.74335 73.1824 5.38754 74.6995 6.52483 75.8172C7.66211 76.9348 9.20034 77.5636 10.8043 77.5653H12.016L12.8983 70.2984L5.59405 67.6992L4.73267 71.5967Z" fill="#27AE60"/>
<path d="M47.658 21.8517L47.427 21.6234L47.7758 21.2786L49.8603 18.8739L50.1083 19.0841L48.0154 21.4974L47.658 21.8517Z" fill="white"/>
</g>
<defs>
<filter id="filter0_i_2_104" x="-4" y="0" width="82.158" height="202" filterUnits="userSpaceOnUse" color-interpolation-filters="sRGB">
<feFlood flood-opacity="0" result="BackgroundImageFix"/>
<feBlend mode="normal" in="SourceGraphic" in2="BackgroundImageFix" result="shape"/>
<feColorMatrix in="SourceAlpha" type="matrix" values="0 0 0 0 0 0 0 0 0 0 0 0 0 0 0 0 0 0 127 0" result="hardAlpha"/>
<feOffset dx="-4" dy="4"/>
<feGaussianBlur stdDeviation="10"/>
<feComposite in2="hardAlpha" operator="arithmetic" k2="-1" k3="1"/>
<feColorMatrix type="matrix" values="0 0 0 0 0 0 0 0 0 0 0 0 0 0 0 0 0 0 0.25 0"/>
<feBlend mode="normal" in2="shape" result="effect1_innerShadow_2_104"/>
</filter>
</defs>
</svg>
